G04 #@! TF.FileFunction,Legend,Top*
%FSLAX46Y46*%
G04 Gerber Fmt 4.6, Leading zero omitted, Abs format (unit mm)*
G04 Created by KiCad (PCBNEW (2015-04-17 BZR 5609)-product) date 2015-04-27 23:38:20*
%MOMM*%
G01*
G04 APERTURE LIST*
%ADD10C,0.100000*%
%ADD11C,0.381000*%
%ADD12C,0.127000*%
%ADD13C,0.304800*%
%ADD14C,0.254000*%
%ADD15C,0.285750*%
%ADD16C,0.287020*%
%ADD17C,0.250000*%
G04 APERTURE END LIST*
D10*
X134950000Y-117530000D02*
X134950000Y-93600000D01*
X174630000Y-117530000D02*
X174630000Y-93600000D01*
X174630000Y-117530000D02*
X134950000Y-117530000D01*
X174630000Y-93600000D02*
X134950000Y-93600000D01*
D11*
X149940000Y-97990000D02*
X149940000Y-98490000D01*
X149940000Y-96390000D02*
X149940000Y-95990000D01*
X150190000Y-96440000D02*
X149690000Y-96440000D01*
X149690000Y-96440000D02*
X149690000Y-95440000D01*
X149690000Y-97940000D02*
X149690000Y-98940000D01*
X150190000Y-97940000D02*
X149690000Y-97940000D01*
X148940000Y-95190000D02*
X147940000Y-95190000D01*
X147940000Y-95190000D02*
G75*
G03X146690000Y-96440000I0J-1250000D01*
G01*
X150190000Y-96440000D02*
G75*
G03X148940000Y-95190000I-1250000J0D01*
G01*
X148940000Y-99190000D02*
X147940000Y-99190000D01*
X146690000Y-97940000D02*
G75*
G03X147940000Y-99190000I1250000J0D01*
G01*
X148940000Y-99190000D02*
G75*
G03X150190000Y-97940000I0J1250000D01*
G01*
X145790000Y-95865000D02*
X145790000Y-95202500D01*
X145790000Y-95202500D02*
X147115000Y-94540000D01*
X145790000Y-99177500D02*
X145790000Y-98515000D01*
X147115000Y-99840000D02*
X145790000Y-99177500D01*
X151090000Y-99840000D02*
X151090000Y-98515000D01*
X151090000Y-95865000D02*
X151090000Y-94540000D01*
X151090000Y-94540000D02*
X147115000Y-94540000D01*
X151090000Y-99840000D02*
X147115000Y-99840000D01*
D12*
X147018000Y-96265000D02*
X147780000Y-96265000D01*
X147399000Y-96646000D02*
X147399000Y-95884000D01*
X151605620Y-102542800D02*
X152621620Y-102542800D01*
X152621620Y-100914660D02*
X151598000Y-100914660D01*
X152626700Y-100919740D02*
X152626700Y-102530100D01*
X149560920Y-100919740D02*
X149560920Y-102530100D01*
X149566000Y-100914660D02*
X150589620Y-100914660D01*
X150582000Y-102542800D02*
X149566000Y-102542800D01*
X151605620Y-104502800D02*
X152621620Y-104502800D01*
X152621620Y-102874660D02*
X151598000Y-102874660D01*
X152626700Y-102879740D02*
X152626700Y-104490100D01*
X149560920Y-102879740D02*
X149560920Y-104490100D01*
X149566000Y-102874660D02*
X150589620Y-102874660D01*
X150582000Y-104502800D02*
X149566000Y-104502800D01*
D11*
X156170000Y-98470000D02*
X156170000Y-97720000D01*
X156420000Y-98470000D02*
X156420000Y-97220000D01*
X156670000Y-98470000D02*
X156670000Y-96970000D01*
X156920000Y-98470000D02*
X156920000Y-96720000D01*
X157170000Y-98470000D02*
X157170000Y-96470000D01*
X156170000Y-100470000D02*
X156170000Y-101220000D01*
X156420000Y-100470000D02*
X156420000Y-101720000D01*
X156670000Y-100470000D02*
X156670000Y-101970000D01*
X156920000Y-100470000D02*
X156920000Y-102220000D01*
X157170000Y-100470000D02*
X157170000Y-102470000D01*
X157420000Y-100470000D02*
X157420000Y-102720000D01*
X157420000Y-98470000D02*
X157420000Y-96220000D01*
X155920000Y-100470000D02*
X157420000Y-100470000D01*
X155920000Y-98470000D02*
X157420000Y-98470000D01*
X158420000Y-95970000D02*
X159420000Y-95970000D01*
X159420000Y-102970000D02*
X158420000Y-102970000D01*
X159420000Y-102970000D02*
G75*
G03X161920000Y-100470000I0J2500000D01*
G01*
X155920000Y-100470000D02*
G75*
G03X158420000Y-102970000I2500000J0D01*
G01*
X161920000Y-98470000D02*
G75*
G03X159420000Y-95970000I-2500000J0D01*
G01*
X158420000Y-95970000D02*
G75*
G03X155920000Y-98470000I0J-2500000D01*
G01*
X154770000Y-100507500D02*
X154770000Y-103620000D01*
X154770000Y-103620000D02*
X160995000Y-103620000D01*
X160995000Y-103620000D02*
X162032500Y-103620000D01*
X162032500Y-103620000D02*
X163070000Y-102582500D01*
X163070000Y-102582500D02*
X163070000Y-100507500D01*
X154770000Y-98432500D02*
X154770000Y-95320000D01*
X154770000Y-95320000D02*
X162032500Y-95320000D01*
X162032500Y-95320000D02*
X163070000Y-96357500D01*
X163070000Y-96357500D02*
X163070000Y-98432500D01*
D12*
X161554500Y-100595000D02*
X160792500Y-100595000D01*
X161173500Y-100214000D02*
X161173500Y-100976000D01*
D11*
X155949140Y-113429540D02*
X155949140Y-115629180D01*
X159550860Y-115629180D02*
X159550860Y-113429540D01*
X155949140Y-115629180D02*
X159550860Y-115629180D01*
X155949140Y-108430820D02*
X159550860Y-108430820D01*
X159550860Y-108430820D02*
X159550860Y-110630460D01*
X155949140Y-110630460D02*
X155949140Y-108430820D01*
X156350460Y-111430560D02*
X159149540Y-111430560D01*
X156350460Y-110831120D02*
X156350460Y-113228880D01*
X156350460Y-113228880D02*
X159149540Y-113228880D01*
X159149540Y-113228880D02*
X159149540Y-110831120D01*
X159149540Y-110831120D02*
X156350460Y-110831120D01*
D13*
X169029980Y-113259980D02*
X169029980Y-110935880D01*
X169029980Y-105960020D02*
X169029980Y-108309520D01*
X161730020Y-113259980D02*
X161730020Y-110935880D01*
X161730020Y-105960020D02*
X161730020Y-108309520D01*
X168420380Y-111349900D02*
X167150380Y-112619900D01*
X167150380Y-112619900D02*
X166329960Y-111799480D01*
X168410220Y-111349900D02*
X167569480Y-110509160D01*
X163640100Y-106589940D02*
X162370100Y-107859940D01*
X162370100Y-107859940D02*
X163190520Y-108680360D01*
X163640100Y-106589940D02*
X164460520Y-107410360D01*
X163619780Y-112619900D02*
X164419880Y-111819800D01*
X162349780Y-111349900D02*
X163619780Y-112619900D01*
X162349780Y-111349900D02*
X163190520Y-110509160D01*
X167528840Y-108680360D02*
X168379740Y-107829460D01*
X168379740Y-107829460D02*
X167130060Y-106579780D01*
X167130060Y-106579780D02*
X166299480Y-107410360D01*
X167706791Y-109610000D02*
G75*
G03X167706791Y-109610000I-2326791J0D01*
G01*
X161730020Y-113259980D02*
X169029980Y-113259980D01*
X169029980Y-105960020D02*
X161730020Y-105960020D01*
D12*
X148305620Y-104502800D02*
X149321620Y-104502800D01*
X149321620Y-102874660D02*
X148298000Y-102874660D01*
X149326700Y-102879740D02*
X149326700Y-104490100D01*
X146260920Y-102879740D02*
X146260920Y-104490100D01*
X146266000Y-102874660D02*
X147289620Y-102874660D01*
X147282000Y-104502800D02*
X146266000Y-104502800D01*
X160195620Y-106272800D02*
X161211620Y-106272800D01*
X161211620Y-104644660D02*
X160188000Y-104644660D01*
X161216700Y-104649740D02*
X161216700Y-106260100D01*
X158150920Y-104649740D02*
X158150920Y-106260100D01*
X158156000Y-104644660D02*
X159179620Y-104644660D01*
X159172000Y-106272800D02*
X158156000Y-106272800D01*
X157162800Y-105904380D02*
X157162800Y-104888380D01*
X155534660Y-104888380D02*
X155534660Y-105912000D01*
X155539740Y-104883300D02*
X157150100Y-104883300D01*
X155539740Y-107949080D02*
X157150100Y-107949080D01*
X155534660Y-107944000D02*
X155534660Y-106920380D01*
X157162800Y-106928000D02*
X157162800Y-107944000D01*
D11*
X151921040Y-110229360D02*
X153020860Y-109129540D01*
X152279820Y-110219360D02*
X153079920Y-109419260D01*
X152619540Y-110259360D02*
X153119920Y-109758980D01*
X149203880Y-105154600D02*
X149203880Y-110285400D01*
X149203880Y-110285400D02*
X153156120Y-110285400D01*
X153156120Y-110285400D02*
X153156120Y-105154600D01*
X153156120Y-105154600D02*
X149203880Y-105154600D01*
D14*
X143330000Y-105380000D02*
X144092000Y-105380000D01*
X144092000Y-105380000D02*
X144092000Y-95220000D01*
X144092000Y-95220000D02*
X143330000Y-95220000D01*
X134948000Y-105380000D02*
X134948000Y-95220000D01*
X134948000Y-95220000D02*
X135964000Y-95220000D01*
X135964000Y-95220000D02*
X135964000Y-105380000D01*
X135964000Y-105380000D02*
X134948000Y-105380000D01*
X135710000Y-105380000D02*
X143330000Y-105380000D01*
X143330000Y-95220000D02*
X135710000Y-95220000D01*
X143330000Y-116100000D02*
X144092000Y-116100000D01*
X144092000Y-116100000D02*
X144092000Y-105940000D01*
X144092000Y-105940000D02*
X143330000Y-105940000D01*
X134948000Y-116100000D02*
X134948000Y-105940000D01*
X134948000Y-105940000D02*
X135964000Y-105940000D01*
X135964000Y-105940000D02*
X135964000Y-116100000D01*
X135964000Y-116100000D02*
X134948000Y-116100000D01*
X135710000Y-116100000D02*
X143330000Y-116100000D01*
X143330000Y-105940000D02*
X135710000Y-105940000D01*
X166250000Y-94530000D02*
X165488000Y-94530000D01*
X165488000Y-94530000D02*
X165488000Y-104690000D01*
X165488000Y-104690000D02*
X166250000Y-104690000D01*
X174632000Y-94530000D02*
X174632000Y-104690000D01*
X174632000Y-104690000D02*
X173616000Y-104690000D01*
X173616000Y-104690000D02*
X173616000Y-94530000D01*
X173616000Y-94530000D02*
X174632000Y-94530000D01*
X173870000Y-94530000D02*
X166250000Y-94530000D01*
X166250000Y-104690000D02*
X173870000Y-104690000D01*
D12*
X145364380Y-106217200D02*
X144348380Y-106217200D01*
X144348380Y-107845340D02*
X145372000Y-107845340D01*
X144343300Y-107840260D02*
X144343300Y-106229900D01*
X147409080Y-107840260D02*
X147409080Y-106229900D01*
X147404000Y-107845340D02*
X146380380Y-107845340D01*
X146388000Y-106217200D02*
X147404000Y-106217200D01*
D11*
X153784286Y-97294000D02*
X153856857Y-97366571D01*
X153929429Y-97584285D01*
X153929429Y-97729428D01*
X153856857Y-97947143D01*
X153711714Y-98092285D01*
X153566571Y-98164857D01*
X153276286Y-98237428D01*
X153058571Y-98237428D01*
X152768286Y-98164857D01*
X152623143Y-98092285D01*
X152478000Y-97947143D01*
X152405429Y-97729428D01*
X152405429Y-97584285D01*
X152478000Y-97366571D01*
X152550571Y-97294000D01*
X153929429Y-95842571D02*
X153929429Y-96713428D01*
X153929429Y-96278000D02*
X152405429Y-96278000D01*
X152623143Y-96423143D01*
X152768286Y-96568285D01*
X152840857Y-96713428D01*
D12*
X148674167Y-101286786D02*
X148643929Y-101317024D01*
X148553214Y-101347262D01*
X148492738Y-101347262D01*
X148402024Y-101317024D01*
X148341548Y-101256548D01*
X148311309Y-101196071D01*
X148281071Y-101075119D01*
X148281071Y-100984405D01*
X148311309Y-100863452D01*
X148341548Y-100802976D01*
X148402024Y-100742500D01*
X148492738Y-100712262D01*
X148553214Y-100712262D01*
X148643929Y-100742500D01*
X148674167Y-100772738D01*
X148916071Y-100772738D02*
X148946309Y-100742500D01*
X149006786Y-100712262D01*
X149157976Y-100712262D01*
X149218452Y-100742500D01*
X149248690Y-100772738D01*
X149278929Y-100833214D01*
X149278929Y-100893690D01*
X149248690Y-100984405D01*
X148885833Y-101347262D01*
X149278929Y-101347262D01*
X153366786Y-103635833D02*
X153397024Y-103666071D01*
X153427262Y-103756786D01*
X153427262Y-103817262D01*
X153397024Y-103907976D01*
X153336548Y-103968452D01*
X153276071Y-103998691D01*
X153155119Y-104028929D01*
X153064405Y-104028929D01*
X152943452Y-103998691D01*
X152882976Y-103968452D01*
X152822500Y-103907976D01*
X152792262Y-103817262D01*
X152792262Y-103756786D01*
X152822500Y-103666071D01*
X152852738Y-103635833D01*
X152792262Y-103424167D02*
X152792262Y-103031071D01*
X153034167Y-103242738D01*
X153034167Y-103152024D01*
X153064405Y-103091548D01*
X153094643Y-103061310D01*
X153155119Y-103031071D01*
X153306310Y-103031071D01*
X153366786Y-103061310D01*
X153397024Y-103091548D01*
X153427262Y-103152024D01*
X153427262Y-103333452D01*
X153397024Y-103393929D01*
X153366786Y-103424167D01*
D11*
X164774286Y-103774000D02*
X164846857Y-103846571D01*
X164919429Y-104064285D01*
X164919429Y-104209428D01*
X164846857Y-104427143D01*
X164701714Y-104572285D01*
X164556571Y-104644857D01*
X164266286Y-104717428D01*
X164048571Y-104717428D01*
X163758286Y-104644857D01*
X163613143Y-104572285D01*
X163468000Y-104427143D01*
X163395429Y-104209428D01*
X163395429Y-104064285D01*
X163468000Y-103846571D01*
X163540571Y-103774000D01*
X163903429Y-102467714D02*
X164919429Y-102467714D01*
X163322857Y-102830571D02*
X164411429Y-103193428D01*
X164411429Y-102250000D01*
D15*
X154065911Y-112873642D02*
X152922911Y-112873642D01*
X152922911Y-112601499D01*
X152977340Y-112438214D01*
X153086197Y-112329356D01*
X153195054Y-112274928D01*
X153412769Y-112220499D01*
X153576054Y-112220499D01*
X153793769Y-112274928D01*
X153902626Y-112329356D01*
X154011483Y-112438214D01*
X154065911Y-112601499D01*
X154065911Y-112873642D01*
X154065911Y-111131928D02*
X154065911Y-111785071D01*
X154065911Y-111458499D02*
X152922911Y-111458499D01*
X153086197Y-111567356D01*
X153195054Y-111676214D01*
X153249483Y-111785071D01*
D16*
D14*
X161234524Y-112361666D02*
X161234524Y-112966428D01*
X159964524Y-112966428D01*
X161234524Y-111273095D02*
X161234524Y-111998809D01*
X161234524Y-111635952D02*
X159964524Y-111635952D01*
X160145952Y-111756904D01*
X160266905Y-111877857D01*
X160327381Y-111998809D01*
D12*
X148634167Y-102617262D02*
X148422500Y-102314881D01*
X148271309Y-102617262D02*
X148271309Y-101982262D01*
X148513214Y-101982262D01*
X148573690Y-102012500D01*
X148603929Y-102042738D01*
X148634167Y-102103214D01*
X148634167Y-102193929D01*
X148603929Y-102254405D01*
X148573690Y-102284643D01*
X148513214Y-102314881D01*
X148271309Y-102314881D01*
X149238929Y-102617262D02*
X148876071Y-102617262D01*
X149057500Y-102617262D02*
X149057500Y-101982262D01*
X148997024Y-102072976D01*
X148936548Y-102133452D01*
X148876071Y-102163690D01*
X161764167Y-104617262D02*
X161552500Y-104314881D01*
X161401309Y-104617262D02*
X161401309Y-103982262D01*
X161643214Y-103982262D01*
X161703690Y-104012500D01*
X161733929Y-104042738D01*
X161764167Y-104103214D01*
X161764167Y-104193929D01*
X161733929Y-104254405D01*
X161703690Y-104284643D01*
X161643214Y-104314881D01*
X161401309Y-104314881D01*
X162006071Y-104042738D02*
X162036309Y-104012500D01*
X162096786Y-103982262D01*
X162247976Y-103982262D01*
X162308452Y-104012500D01*
X162338690Y-104042738D01*
X162368929Y-104103214D01*
X162368929Y-104163690D01*
X162338690Y-104254405D01*
X161975833Y-104617262D01*
X162368929Y-104617262D01*
X154724167Y-105297262D02*
X154512500Y-104994881D01*
X154361309Y-105297262D02*
X154361309Y-104662262D01*
X154603214Y-104662262D01*
X154663690Y-104692500D01*
X154693929Y-104722738D01*
X154724167Y-104783214D01*
X154724167Y-104873929D01*
X154693929Y-104934405D01*
X154663690Y-104964643D01*
X154603214Y-104994881D01*
X154361309Y-104994881D01*
X154935833Y-104662262D02*
X155328929Y-104662262D01*
X155117262Y-104904167D01*
X155207976Y-104904167D01*
X155268452Y-104934405D01*
X155298690Y-104964643D01*
X155328929Y-105025119D01*
X155328929Y-105176310D01*
X155298690Y-105236786D01*
X155268452Y-105267024D01*
X155207976Y-105297262D01*
X155026548Y-105297262D01*
X154966071Y-105267024D01*
X154935833Y-105236786D01*
D15*
X149459143Y-112114071D02*
X149459143Y-113039357D01*
X149513571Y-113148214D01*
X149568000Y-113202643D01*
X149676857Y-113257071D01*
X149894571Y-113257071D01*
X150003429Y-113202643D01*
X150057857Y-113148214D01*
X150112286Y-113039357D01*
X150112286Y-112114071D01*
X151255286Y-113257071D02*
X150602143Y-113257071D01*
X150928715Y-113257071D02*
X150928715Y-112114071D01*
X150819858Y-112277357D01*
X150711000Y-112386214D01*
X150602143Y-112440643D01*
D13*
X145939429Y-96264857D02*
X144415429Y-96264857D01*
X144415429Y-95684285D01*
X144488000Y-95539143D01*
X144560571Y-95466571D01*
X144705714Y-95394000D01*
X144923429Y-95394000D01*
X145068571Y-95466571D01*
X145141143Y-95539143D01*
X145213714Y-95684285D01*
X145213714Y-96264857D01*
X145939429Y-93942571D02*
X145939429Y-94813428D01*
X145939429Y-94378000D02*
X144415429Y-94378000D01*
X144633143Y-94523143D01*
X144778286Y-94668285D01*
X144850857Y-94813428D01*
D17*
X144802381Y-103426190D02*
X145802381Y-103092857D01*
X144802381Y-102759523D01*
X145897619Y-102664285D02*
X145897619Y-101902380D01*
X145802381Y-101664285D02*
X144802381Y-101664285D01*
X145802381Y-101188095D02*
X144802381Y-101188095D01*
X145802381Y-100616666D01*
X144802381Y-100616666D01*
D13*
X146029429Y-113414857D02*
X144505429Y-113414857D01*
X144505429Y-112834285D01*
X144578000Y-112689143D01*
X144650571Y-112616571D01*
X144795714Y-112544000D01*
X145013429Y-112544000D01*
X145158571Y-112616571D01*
X145231143Y-112689143D01*
X145303714Y-112834285D01*
X145303714Y-113414857D01*
X144650571Y-111963428D02*
X144578000Y-111890857D01*
X144505429Y-111745714D01*
X144505429Y-111382857D01*
X144578000Y-111237714D01*
X144650571Y-111165143D01*
X144795714Y-111092571D01*
X144940857Y-111092571D01*
X145158571Y-111165143D01*
X146029429Y-112036000D01*
X146029429Y-111092571D01*
D17*
X145844762Y-114822381D02*
X146178095Y-115822381D01*
X146511429Y-114822381D01*
X146606667Y-115917619D02*
X147368572Y-115917619D01*
X148178096Y-115822381D02*
X147844762Y-115346190D01*
X147606667Y-115822381D02*
X147606667Y-114822381D01*
X147987620Y-114822381D01*
X148082858Y-114870000D01*
X148130477Y-114917619D01*
X148178096Y-115012857D01*
X148178096Y-115155714D01*
X148130477Y-115250952D01*
X148082858Y-115298571D01*
X147987620Y-115346190D01*
X147606667Y-115346190D01*
X148606667Y-115298571D02*
X148940001Y-115298571D01*
X149082858Y-115822381D02*
X148606667Y-115822381D01*
X148606667Y-114822381D01*
X149082858Y-114822381D01*
X149844763Y-115298571D02*
X149511429Y-115298571D01*
X149511429Y-115822381D02*
X149511429Y-114822381D01*
X149987620Y-114822381D01*
D13*
X165089429Y-98264857D02*
X163565429Y-98264857D01*
X163565429Y-97684285D01*
X163638000Y-97539143D01*
X163710571Y-97466571D01*
X163855714Y-97394000D01*
X164073429Y-97394000D01*
X164218571Y-97466571D01*
X164291143Y-97539143D01*
X164363714Y-97684285D01*
X164363714Y-98264857D01*
X163565429Y-96886000D02*
X163565429Y-95942571D01*
X164146000Y-96450571D01*
X164146000Y-96232857D01*
X164218571Y-96087714D01*
X164291143Y-96015143D01*
X164436286Y-95942571D01*
X164799143Y-95942571D01*
X164944286Y-96015143D01*
X165016857Y-96087714D01*
X165089429Y-96232857D01*
X165089429Y-96668285D01*
X165016857Y-96813428D01*
X164944286Y-96886000D01*
D17*
X172422381Y-110482857D02*
X173422381Y-110149524D01*
X172422381Y-109816190D01*
X173517619Y-109720952D02*
X173517619Y-108959047D01*
X172422381Y-108530476D02*
X172422381Y-108339999D01*
X172470000Y-108244761D01*
X172565238Y-108149523D01*
X172755714Y-108101904D01*
X173089048Y-108101904D01*
X173279524Y-108149523D01*
X173374762Y-108244761D01*
X173422381Y-108339999D01*
X173422381Y-108530476D01*
X173374762Y-108625714D01*
X173279524Y-108720952D01*
X173089048Y-108768571D01*
X172755714Y-108768571D01*
X172565238Y-108720952D01*
X172470000Y-108625714D01*
X172422381Y-108530476D01*
X172422381Y-107673333D02*
X173231905Y-107673333D01*
X173327143Y-107625714D01*
X173374762Y-107578095D01*
X173422381Y-107482857D01*
X173422381Y-107292380D01*
X173374762Y-107197142D01*
X173327143Y-107149523D01*
X173231905Y-107101904D01*
X172422381Y-107101904D01*
X172422381Y-106768571D02*
X172422381Y-106197142D01*
X173422381Y-106482857D02*
X172422381Y-106482857D01*
D12*
X145694167Y-108757262D02*
X145482500Y-108454881D01*
X145331309Y-108757262D02*
X145331309Y-108122262D01*
X145573214Y-108122262D01*
X145633690Y-108152500D01*
X145663929Y-108182738D01*
X145694167Y-108243214D01*
X145694167Y-108333929D01*
X145663929Y-108394405D01*
X145633690Y-108424643D01*
X145573214Y-108454881D01*
X145331309Y-108454881D01*
X146238452Y-108333929D02*
X146238452Y-108757262D01*
X146087262Y-108092024D02*
X145936071Y-108545595D01*
X146329167Y-108545595D01*
M02*
